<svg width="600" height="600" viewBox="0 0 600 600" fill="none" xmlns="http://www.w3.org/2000/svg">
  <path d="M300 50C164.772 50 50 164.772 50 300C50 435.228 164.772 550 300 550C435.228 550 550 435.228 550 300C550 164.772 435.228 50 300 50ZM300 500C192.259 500 100 407.741 100 300C100 192.259 192.259 100 300 100C407.741 100 500 192.259 500 300C500 407.741 407.741 500 300 500Z" fill="currentColor"/>
  <path d="M300 150C220.442 150 150 220.442 150 300C150 379.558 220.442 450 300 450C379.558 450 450 379.558 450 300C450 220.442 379.558 150 300 150ZM300 400C247.533 400 200 352.467 200 300C200 247.533 247.533 200 300 200C352.467 200 400 247.533 400 300C400 352.467 352.467 400 300 400Z" fill="currentColor"/>
</svg> 